# xmcd
#
# Track frame offsets:
#	150
#	12955
#	36154
#	56896
#	71741
#	96368
#	109587
#	130122
#	150604
#	168463
#	183780
#	203267
#	221777
#	238751
#	255371
#
# Disc length: 3659 seconds
#
# Revision: 1
# Processed by: cddbd v1.5.1PL0 Copyright (c) Steve Scherf et al.
# Submitted via: CDmax 1.8
#
DISCID=ca0e490f
DTITLE=Angelo Branduardi - Best of
DYEAR=1900
DGENRE=Pop-Folk
TTITLE0=La Luna
TTITLE1=Confessioni di un malandrino
TTITLE2=La serie dei numeri
TTITLE3=Il dono del cervo
TTITLE4=Alla fiera dell'est
TTITLE5=Sotto il tiglio
TTITLE6=La pulce d'acqua
TTITLE7=Ballo in fa diesis minore
TTITLE8=Il ciliegio
TTITLE9=Cogli la prima mela
TTITLE10=Il signore di Baux
TTITLE11=La volpe
TTITLE12=Il violinista di Dooney
TTITLE13=Tango
TTITLE14=Madame
EXTD=
EXTT0=
EXTT1=
EXTT2=
EXTT3=
EXTT4=
EXTT5=
EXTT6=
EXTT7=
EXTT8=
EXTT9=
EXTT10=
EXTT11=
EXTT12=
EXTT13=
EXTT14=
PLAYORDER=
